<svg xmlns="http://www.w3.org/2000/svg" viewBox="0 0 330.93 109.34"><defs><style>.cls-1{fill:#34004f;}</style></defs><title>アートボード 8</title><g id="ロゴ"><path class="cls-1" d="M61.23,88.7c3.11,0,4.67-3.12,4.67-7.79a17.54,17.54,0,0,1-12.46,4.67c-5-.13-5.9-2.42-8.71-2.33-3.35.1-4.71.38-6.85,2.33-1.56-4.67,0-7.78-6.23-14-1.56,4.67-3.11,6.23-3.11,6.23s-7.79-6.23-10.9-12.45S13,52.89,11.41,49.78s-6.22-6.23-9.34-6.23c0,0-1.55,17.13,21.8,37.36C20.75,84,19.2,84,19.2,84s4.67,7.78,15.56,6.22c1.56,4.67,4.67,17.13,20.24,17.13s20.24-14,21.79-18.68C70.57,90.25,67.45,90.25,61.23,88.7Z"/><path class="cls-1" d="M103.26,52.89s1.55,4.67-6.23,15.57S75.24,80.91,75.24,80.91c9.34,3.12,12.45,0,15.56,0s6.23,1.56,10.9,0,3.11-9.34,3.11-9.34,4.67,3.12,6.23-6.22S103.26,52.89,103.26,52.89Z"/><path class="cls-1" d="M190.43,59.12V49a5.08,5.08,0,0,0-.11-.9,20.92,20.92,0,0,0-3-9.22A12,12,0,0,0,178,34.21c-3.83-.06-7.79,0-12.46,4.67a11.67,11.67,0,0,0-9.34-4.67c-3.11,0-7.78,0-10.89,3.12A11.69,11.69,0,0,0,136,32.66c-9.34,0-10.9,9.63-10.9,9.34,0,0,9.34-1.56,9.34,6.22V71.57s-1.56,3.12,6.23,3.12c0,0,6.22,0,6.22-3.12V49.78s0-3.11,4.67-3.11,4.67,3.11,4.67,3.11V71.57s-1.55,3.12,6.23,3.12l.43,0a9.07,9.07,0,0,0,4-.85,2.62,2.62,0,0,0,1.72-2c0-.13,0-.22,0-.22V49.78s0-3.11,4.67-3.11S178,49.78,178,49.78v7.78c0,7.79.5,10.47,1.34,12.51,1.14,2.77,3.33,4.62,8,4.62,7.78,0,12.45-7.79,12.45-9.34C199.77,65.35,190.43,68.46,190.43,59.12Z"/><path class="cls-1" d="M240.24,62.23c1.56-6.22,1.56-12.45-1.55-17.12.32-4.29,2.85-5.39,6.22-4.67,0-4.67-4.67-7.78-9.34-7.78s-6.22,3.11-6.22,3.11-2.9-3.64-11.64-2.76S201,40.07,201.07,54.31c0,9.93,6.48,20.38,18.94,20.38,7.78,0,11.23-4.18,11.23-4.18s1.75,4.11,7.45,4.18c4.66,0,9.34-6.23,9.34-6.23S241.25,68.81,240.24,62.23Zm-19-.08a9,9,0,1,1,9-9A9,9,0,0,1,221.28,62.15Z"/><path class="cls-1" d="M286.94,32.66A19,19,0,0,0,278,34.88a20.53,20.53,0,0,0-26.41,19.69,19.4,19.4,0,0,0,12.15,17.9,1.91,1.91,0,0,1-.17,2.22c-1.55,1.55-10.89,6.22-10.89,14s9.34,15.56,21.79,15.56,21.79-7.78,21.79-15.56-6.48-11.5-14-14c-2.12-.71-1.34-2.39.14-4,6.06-3.09,10.29-8.4,10.29-16.12a20.39,20.39,0,0,0-2.84-10.38,7.75,7.75,0,0,1,8-3.75S294.73,32.66,286.94,32.66ZM273,45.15a8.56,8.56,0,1,1-8.55,8.55A8.55,8.55,0,0,1,273,45.15Zm-4.75,45.1c-6.22,0-6.22-3.11-6.22-4.67s1.55-6.22,3.11-6.22c3.11,0,3.11,1.55,7.78,1.55s6.23,1.56,6.23,4.67S274.49,90.25,268.26,90.25Z"/><path class="cls-1" d="M320.41,21.76c0-6.23-2.87-11.16-10.06-19,0,0-8.62,11.17-8.62,19S308.26,31,311.14,31,320.41,28,320.41,21.76Z"/><path class="cls-1" d="M318.08,60.68V37.33c0-3.12-4.67-3.12-4.67-3.12h-4.67c-4.67,0-4.67,3.12-4.67,3.12V68.46c0,1.56,1.55,6.23,9.34,6.23s10.89-3.12,12.45-9.34C318.08,65.35,318.08,60.68,318.08,60.68Z"/><path class="cls-1" d="M26.33,58.34c15.18,12.07,28.29,7.71,31.78,5.45A10.62,10.62,0,0,0,62.78,56s6.23-1.56,7.79-7.79,0-12.45-6.23-18.68c-2.21-1.42-1-3.89,3.11-4.67,4.59-.86,6.23,0,6.23,1.56S71.83,28,71.83,32.64,73.29,42,79.91,43.55a15.62,15.62,0,0,0-1.82,7.79c.14,1.55.26,3.11,3.37,6.22-1.55,4.67-9.34,14-17.12,18.68C69,77.8,83,70,87.69,65.35s7.67-10.48,8.69-21.15c.87-9.17-.91-13.1-.91-13.1s6.23,4.67,4.67,18.68c3.12-6.23,2.24-17,0-23.35-1.64-4.64-11-20.82-29.83-22.7-15.57-1.56-20,.91-20,.91s-3.11-3.12-10.9-1.56S27,12.42,28.54,18.65c0,0-3.12,0-7.79,6.22S9.76,45.17,26.33,58.34ZM50.71,39.43,52,46.52l6.22,1.37L52,49.15l-1.3,7.18-1.31-7.18-6.25-1.26,6.27-1.37Zm-17.26-7,2.13-10,2.13,10,10.12,1.94L37.66,36.15,35.53,46.32,33.4,36.15,23.23,34.36Z"/></g></svg>